<svg width="16" height="16" viewBox="0 0 16 16" fill="none" xmlns="http://www.w3.org/2000/svg">
<g clip-path="url(#clip0_5392_946)">
<path d="M13.332 12.8261H11.3779C11.2453 12.8261 11.1181 12.7735 11.0243 12.6797C10.9306 12.5859 10.8779 12.4588 10.8779 12.3261C10.8779 12.1935 10.9306 12.0664 11.0243 11.9726C11.1181 11.8788 11.2453 11.8261 11.3779 11.8261H12.8037C12.7022 10.9453 12.3358 10.1161 11.7529 9.44796C11.1699 8.77986 10.398 8.30441 9.53908 8.08444C9.42229 8.05445 9.32025 7.98331 9.2517 7.8841C9.18316 7.7849 9.15272 7.66429 9.16598 7.54444L9.22068 7.05034C9.22935 6.97139 9.25674 6.89564 9.30057 6.82939C9.3444 6.76314 9.4034 6.70831 9.47268 6.66944C9.71987 6.53231 9.93689 6.34676 10.1108 6.12388C10.2846 5.901 10.4118 5.64535 10.4847 5.37222C10.5576 5.09909 10.5746 4.81408 10.5349 4.5342C10.4952 4.25432 10.3994 3.98533 10.2534 3.74328C10.1074 3.50123 9.91404 3.2911 9.68498 3.12544C9.45593 2.95977 9.19583 2.84197 8.92023 2.77908C8.64464 2.71618 8.35919 2.70948 8.08094 2.75937C7.80269 2.80926 7.53735 2.91471 7.30078 3.06944C7.18954 3.1417 7.05416 3.16681 6.92442 3.13926C6.79467 3.1117 6.68118 3.03373 6.60893 2.92249C6.53667 2.81126 6.51156 2.67588 6.53911 2.54613C6.56667 2.41639 6.64464 2.3029 6.75588 2.23064C7.10946 2.00138 7.50584 1.84614 7.92108 1.7743C8.33632 1.70246 8.76181 1.7155 9.17188 1.81264C9.73141 1.94241 10.2434 2.22645 10.6496 2.63253C11.0558 3.03861 11.34 3.55046 11.47 4.10994C11.608 4.69241 11.575 5.30232 11.3751 5.86654C11.1752 6.43076 10.8167 6.92533 10.3428 7.29094C11.3677 7.67536 12.2509 8.3634 12.8744 9.26315C13.4979 10.1629 13.832 11.2315 13.832 12.3261C13.832 12.4588 13.7793 12.5859 13.6855 12.6797C13.5918 12.7735 13.4646 12.8261 13.332 12.8261Z" fill="#374151"/>
<path d="M15.5 9.36472H14.07C13.9374 9.36472 13.8102 9.31204 13.7165 9.21827C13.6227 9.1245 13.57 8.99733 13.57 8.86472C13.57 8.73211 13.6227 8.60493 13.7165 8.51117C13.8102 8.4174 13.9374 8.36472 14.07 8.36472H14.9606C14.863 7.74925 14.591 7.17466 14.1769 6.709C13.7628 6.24334 13.2239 5.90614 12.624 5.73732C12.5149 5.7071 12.4193 5.64065 12.3529 5.5489C12.2865 5.45714 12.2533 5.34553 12.2588 5.23242L12.2788 4.79692C12.2826 4.71455 12.3067 4.6344 12.3489 4.5636C12.3912 4.4928 12.4503 4.43354 12.521 4.39112C12.7812 4.2391 12.9899 4.01278 13.1204 3.74123C13.251 3.46968 13.2973 3.1653 13.2535 2.8672C13.2098 2.5691 13.0779 2.2909 12.8748 2.06834C12.6717 1.84578 12.4067 1.68903 12.1138 1.61822C11.779 1.54018 11.4278 1.57608 11.1157 1.72022C11.0559 1.74932 10.9908 1.76618 10.9243 1.7698C10.8579 1.77343 10.7914 1.76376 10.7287 1.74134C10.6661 1.71893 10.6085 1.68424 10.5594 1.63929C10.5103 1.59434 10.4707 1.54005 10.4429 1.47959C10.4151 1.41914 10.3996 1.35373 10.3974 1.28722C10.3952 1.2207 10.4062 1.15441 10.43 1.09224C10.4537 1.03006 10.4896 0.973249 10.5356 0.925131C10.5816 0.877012 10.6367 0.838557 10.6977 0.812019C11.2099 0.574028 11.7871 0.514731 12.3369 0.643619C12.7911 0.748941 13.2066 0.979501 13.5363 1.30912C13.866 1.63873 14.0967 2.05419 14.2021 2.50832C14.304 2.94942 14.2857 3.40978 14.1492 3.84141C14.0127 4.27305 13.7629 4.66016 13.4258 4.96242C14.1884 5.29131 14.8384 5.83586 15.2957 6.52914C15.753 7.22241 15.9978 8.0342 16 8.86472C16 8.99733 15.9473 9.1245 15.8536 9.21827C15.7598 9.31204 15.6326 9.36472 15.5 9.36472Z" fill="#374151"/>
<path d="M9.7305 15.4223H0.5C0.367392 15.4223 0.240215 15.3697 0.146447 15.2759C0.0526784 15.1821 0 15.055 0 14.9223C0.00396765 13.9569 0.279782 13.012 0.795854 12.196C1.31193 11.3801 2.04739 10.7259 2.918 10.3085C2.97753 10.2779 3.04261 10.2595 3.10938 10.2545C3.17615 10.2494 3.24326 10.2579 3.30671 10.2793C3.37016 10.3007 3.42867 10.3346 3.47876 10.379C3.52885 10.4235 3.5695 10.4775 3.59831 10.5379C3.62712 10.5984 3.64349 10.664 3.64646 10.7309C3.64942 10.7978 3.63892 10.8646 3.61557 10.9274C3.59223 10.9901 3.55651 11.0476 3.51055 11.0963C3.46459 11.145 3.40931 11.1839 3.348 11.2108C2.72451 11.5103 2.1859 11.961 1.78129 12.5219C1.37668 13.0829 1.11895 13.7362 1.0316 14.4223H9.1992C9.11183 13.7362 8.8541 13.0829 8.44949 12.522C8.04488 11.961 7.50628 11.5103 6.8828 11.2108C6.82355 11.1825 6.77047 11.1428 6.72658 11.0939C6.68269 11.045 6.64886 10.988 6.62701 10.9261C6.60516 10.8641 6.59572 10.7985 6.59924 10.7329C6.60276 10.6673 6.61915 10.6031 6.6475 10.5438C6.70475 10.4242 6.80718 10.3322 6.93227 10.2881C6.9942 10.2662 7.05984 10.2568 7.12542 10.2603C7.19101 10.2638 7.25525 10.2802 7.3145 10.3085C8.1847 10.7263 8.91971 11.3805 9.4354 12.1965C9.9511 13.0124 10.2266 13.9571 10.2305 14.9223C10.2305 15.055 10.1778 15.1821 10.0841 15.2759C9.99028 15.3697 9.86311 15.4223 9.7305 15.4223Z" fill="#374151"/>
<path d="M5.11518 10.23C4.44576 10.23 3.79139 10.0314 3.23482 9.65949C2.67824 9.28755 2.24446 8.75892 1.98833 8.14044C1.73219 7.52196 1.66521 6.84142 1.79586 6.18488C1.9265 5.52834 2.2489 4.92528 2.72228 4.45197C3.19566 3.97865 3.79877 3.65635 4.45533 3.5258C5.11189 3.39525 5.79242 3.46234 6.41086 3.71856C7.0293 3.97478 7.55787 4.40864 7.92973 4.96527C8.30159 5.5219 8.50003 6.1763 8.49998 6.84572C8.49889 7.74304 8.14191 8.6033 7.50736 9.23776C6.87281 9.87221 6.0125 10.2291 5.11518 10.23ZM5.11518 4.46092C4.64356 4.46096 4.18255 4.60084 3.79044 4.86288C3.39832 5.12492 3.09271 5.49734 2.91225 5.93306C2.73179 6.36878 2.68459 6.84823 2.7766 7.31078C2.86862 7.77333 3.09573 8.1982 3.42921 8.53168C3.76269 8.86516 4.18757 9.09227 4.65011 9.18429C5.11266 9.2763 5.59211 9.2291 6.02783 9.04864C6.46355 8.86818 6.83598 8.56257 7.09801 8.17045C7.36005 7.77834 7.49994 7.31733 7.49998 6.84572C7.49934 6.21342 7.24788 5.60721 6.80078 5.16011C6.35368 4.71301 5.74747 4.46155 5.11518 4.46092Z" fill="#374151"/>
</g>
<defs>
<clipPath id="clip0_5392_946">
<rect width="16" height="16" fill="white"/>
</clipPath>
</defs>
</svg>