<svg width="16" height="16" viewBox="0 0 16 16" fill="none" xmlns="http://www.w3.org/2000/svg">
<g clip-path="url(#clip0_5394_800)">
<path d="M4.3887 9.27734C4.19092 9.27734 3.99758 9.2187 3.83313 9.10881C3.66868 8.99893 3.54051 8.84275 3.46482 8.66003C3.38914 8.4773 3.36933 8.27623 3.40792 8.08225C3.4465 7.88827 3.54174 7.71009 3.6816 7.57024C3.82145 7.43039 3.99963 7.33514 4.19361 7.29656C4.38759 7.25797 4.58866 7.27778 4.77139 7.35346C4.95411 7.42915 5.11029 7.55733 5.22017 7.72177C5.33005 7.88622 5.3887 8.07956 5.3887 8.27734C5.38846 8.54249 5.28303 8.7967 5.09555 8.98419C4.90806 9.17167 4.65385 9.27711 4.3887 9.27734Z" fill="white"/>
<path d="M7.7222 9.27734C7.52442 9.27734 7.33108 9.2187 7.16663 9.10881C7.00218 8.99893 6.87401 8.84275 6.79832 8.66003C6.72263 8.4773 6.70283 8.27623 6.74141 8.08225C6.78 7.88827 6.87524 7.71009 7.01509 7.57024C7.15494 7.43039 7.33313 7.33514 7.52711 7.29656C7.72109 7.25797 7.92216 7.27778 8.10488 7.35346C8.28761 7.42915 8.44379 7.55733 8.55367 7.72177C8.66355 7.88622 8.7222 8.07956 8.7222 8.27734C8.72196 8.54249 8.61653 8.7967 8.42904 8.98419C8.24156 9.17167 7.98734 9.27711 7.7222 9.27734Z" fill="white"/>
<path d="M11.0557 9.27734C10.8579 9.27734 10.6646 9.2187 10.5001 9.10881C10.3357 8.99893 10.2075 8.84275 10.1318 8.66003C10.0561 8.4773 10.0363 8.27623 10.0749 8.08225C10.1135 7.88827 10.2087 7.71009 10.3486 7.57024C10.4884 7.43039 10.6666 7.33514 10.8606 7.29656C11.0546 7.25797 11.2557 7.27778 11.4384 7.35346C11.6211 7.42915 11.7773 7.55733 11.8872 7.72177C11.997 7.88622 12.0557 8.07956 12.0557 8.27734C12.0555 8.54249 11.95 8.7967 11.7625 8.98419C11.5751 9.17167 11.3208 9.27711 11.0557 9.27734Z" fill="white"/>
<path d="M8 16H2.1665C2.03389 16 1.90671 15.9473 1.81295 15.8536C1.71918 15.7598 1.6665 15.6326 1.6665 15.5C1.6665 15.3674 1.71918 15.2402 1.81295 15.1465C1.90671 15.0527 2.03389 15 2.1665 15H8C9.38447 15 10.7378 14.5895 11.889 13.8203C13.0401 13.0511 13.9373 11.9579 14.4672 10.6788C14.997 9.39971 15.1356 7.99224 14.8655 6.63437C14.5954 5.2765 13.9287 4.02922 12.9497 3.05026C11.9708 2.07129 10.7235 1.4046 9.36563 1.13451C8.00776 0.86441 6.6003 1.00303 5.32122 1.53285C4.04213 2.06266 2.94888 2.95987 2.17971 4.11101C1.41054 5.26216 1 6.61553 1 8V13.833C1 13.9656 0.947322 14.0928 0.853553 14.1866C0.759785 14.2803 0.632608 14.333 0.5 14.333C0.367392 14.333 0.240215 14.2803 0.146447 14.1866C0.0526784 14.0928 0 13.9656 0 13.833V8C0 6.41775 0.469192 4.87103 1.34824 3.55544C2.22729 2.23985 3.47672 1.21447 4.93853 0.608967C6.40034 0.00346625 8.00887 -0.15496 9.56072 0.153721C11.1126 0.462403 12.538 1.22433 13.6569 2.34315C14.7757 3.46197 15.5376 4.88743 15.8463 6.43928C16.155 7.99113 15.9965 9.59966 15.391 11.0615C14.7855 12.5233 13.7602 13.7727 12.4446 14.6518C11.129 15.5308 9.58225 16 8 16Z" fill="white"/>
</g>
<defs>
<clipPath id="clip0_5394_800">
<rect width="16" height="16" fill="white"/>
</clipPath>
</defs>
</svg>