<svg width="16" height="16" viewBox="0 0 16 16" fill="none" xmlns="http://www.w3.org/2000/svg">
<g clip-path="url(#clip0_5394_805)">
<path d="M7.99999 15.9824C7.32856 15.9798 6.68103 15.7329 6.17837 15.2878C5.67571 14.8426 5.35231 14.2297 5.26859 13.5635C5.25963 13.498 5.26375 13.4314 5.28071 13.3675C5.29766 13.3036 5.32712 13.2437 5.36738 13.1912C5.40764 13.1388 5.45789 13.0949 5.51524 13.062C5.57259 13.0291 5.63588 13.0079 5.70147 12.9996C5.76706 12.9914 5.83364 12.9962 5.89735 13.0138C5.96106 13.0315 6.02065 13.0616 6.07265 13.1024C6.12466 13.1432 6.16805 13.1939 6.20033 13.2516C6.23261 13.3093 6.25312 13.3728 6.26069 13.4385C6.31159 13.864 6.51671 14.2561 6.83724 14.5406C7.15776 14.825 7.57144 14.9821 7.99999 14.9821C8.42854 14.9821 8.84222 14.825 9.16275 14.5406C9.48327 14.2561 9.68839 13.864 9.73929 13.4385C9.74686 13.3728 9.76737 13.3093 9.79965 13.2516C9.83193 13.1939 9.87532 13.1432 9.92733 13.1024C9.97934 13.0616 10.0389 13.0315 10.1026 13.0138C10.1663 12.9962 10.2329 12.9914 10.2985 12.9996C10.3641 13.0079 10.4274 13.0291 10.4847 13.062C10.5421 13.0949 10.5923 13.1388 10.6326 13.1912C10.6729 13.2437 10.7023 13.3036 10.7193 13.3675C10.7362 13.4314 10.7403 13.498 10.7314 13.5635C10.6477 14.2297 10.3243 14.8426 9.82161 15.2878C9.31895 15.7329 8.67142 15.9798 7.99999 15.9824V15.9824Z" fill="white"/>
<path d="M15.5 12.586H0.5C0.367392 12.586 0.240215 12.5333 0.146447 12.4395C0.0526784 12.3457 0 12.2186 0 12.086C0 11.9533 0.0526784 11.8262 0.146447 11.7324C0.240215 11.6386 0.367392 11.586 0.5 11.586C0.967607 11.5855 1.41593 11.3996 1.74659 11.0689C2.07725 10.7383 2.26322 10.29 2.2637 9.82235V5.57715C2.2664 4.36593 2.64256 3.18501 3.34089 2.19536C4.03922 1.20571 5.02575 0.455485 6.166 0.0469529C6.22832 0.0226152 6.29489 0.0110314 6.36176 0.0128878C6.42864 0.0147442 6.49446 0.030003 6.55534 0.0577603C6.61621 0.0855177 6.67089 0.125209 6.71615 0.174483C6.7614 0.223758 6.79631 0.281613 6.81879 0.344622C6.84128 0.407631 6.8509 0.474513 6.84707 0.541306C6.84324 0.608098 6.82605 0.673444 6.79651 0.733471C6.76697 0.793498 6.72568 0.846986 6.67509 0.890767C6.6245 0.934549 6.56565 0.967732 6.502 0.988353C5.55585 1.32737 4.73724 1.94988 4.15774 2.77105C3.57825 3.59222 3.26605 4.5721 3.2637 5.57715V9.82235C3.26454 10.4668 3.03882 11.0911 2.626 11.586H13.374C12.9612 11.0911 12.7355 10.4668 12.7363 9.82235V5.57715C12.734 4.5721 12.4218 3.59222 11.8423 2.77105C11.2628 1.94988 10.4442 1.32737 9.498 0.988353C9.37686 0.941042 9.27891 0.84839 9.22495 0.730057C9.171 0.611725 9.16527 0.477024 9.20899 0.354537C9.2527 0.232051 9.34243 0.131418 9.45912 0.0739923C9.5758 0.0165667 9.71028 0.00686751 9.834 0.0469529C10.9742 0.455473 11.9607 1.20567 12.6591 2.19527C13.3574 3.18488 13.7336 4.36576 13.7363 5.57695V9.82235C13.7368 10.29 13.9228 10.7383 14.2534 11.0689C14.5841 11.3996 15.0324 11.5855 15.5 11.586C15.6326 11.586 15.7598 11.6386 15.8536 11.7324C15.9473 11.8262 16 11.9533 16 12.086C16 12.2186 15.9473 12.3457 15.8536 12.4395C15.7598 12.5333 15.6326 12.586 15.5 12.586Z" fill="white"/>
</g>
<defs>
<clipPath id="clip0_5394_805">
<rect width="16" height="16" fill="white"/>
</clipPath>
</defs>
</svg>