<svg width="16" height="16" viewBox="0 0 16 16" fill="none" xmlns="http://www.w3.org/2000/svg">
<g clip-path="url(#clip0_5394_797)">
<path d="M0.5 16C0.401125 16 0.304476 15.9706 0.222271 15.9157C0.140066 15.8608 0.0759963 15.7827 0.0381613 15.6913C0.000326265 15.6 -0.00957522 15.4995 0.00970856 15.4025C0.0289923 15.3055 0.0765956 15.2164 0.1465 15.1465L3.9092 11.3838C2.82057 10.1395 2.2212 8.542 2.2227 6.8887C2.22171 5.45679 2.66696 4.06016 3.49652 2.89303C4.32608 1.72591 5.49873 0.846293 6.85139 0.376518C8.20404 -0.0932558 9.66947 -0.12984 11.0439 0.271852C12.4183 0.673545 13.6334 1.49355 14.5201 2.61783C15.4069 3.74211 15.9213 5.11478 15.9918 6.54495C16.0622 7.97513 15.6853 9.39172 14.9133 10.5977C14.1413 11.8037 13.0127 12.7392 11.6845 13.274C10.3562 13.8089 8.89428 13.9165 7.502 13.582C7.43779 13.5671 7.37715 13.5396 7.3236 13.5012C7.27004 13.4627 7.22461 13.4141 7.18993 13.358C7.15525 13.3019 7.13199 13.2396 7.12151 13.1745C7.11102 13.1094 7.11351 13.0429 7.12884 12.9788C7.14416 12.9146 7.17201 12.8542 7.21078 12.8009C7.24956 12.7476 7.2985 12.7024 7.35478 12.6681C7.41106 12.6338 7.47358 12.6109 7.53873 12.6008C7.60388 12.5908 7.67038 12.5937 7.7344 12.6094C9.12686 12.953 10.5966 12.7806 11.8718 12.124C13.1469 11.4675 14.1411 10.3713 14.6703 9.0383C15.1995 7.70529 15.228 6.2257 14.7504 4.87333C14.2728 3.52095 13.3216 2.38734 12.0726 1.68226C10.8237 0.977178 9.36162 0.748359 7.95698 1.03814C6.55233 1.32793 5.30021 2.1167 4.43229 3.2585C3.56437 4.4003 3.13942 5.81784 3.23607 7.2488C3.33272 8.67976 3.94443 10.0273 4.958 11.042C5.05174 11.1358 5.10439 11.2629 5.10439 11.3955C5.10439 11.5281 5.05174 11.6552 4.958 11.749L0.8535 15.8535C0.807144 15.9 0.752047 15.9369 0.69138 15.9621C0.630712 15.9872 0.565671 16.0001 0.5 16Z" fill="#374151"/>
</g>
<defs>
<clipPath id="clip0_5394_797">
<rect width="16" height="16" fill="white"/>
</clipPath>
</defs>
</svg>