<svg width="28" height="28" viewBox="0 0 28 28" fill="none" xmlns="http://www.w3.org/2000/svg">
<path fill-rule="evenodd" clip-rule="evenodd" d="M14 28C6.26801 28 0 21.732 0 14C0 6.26801 6.26801 0 14 0C21.732 0 28 6.26801 28 14C28 21.732 21.732 28 14 28ZM14 25.4546C20.3262 25.4546 25.4546 20.3262 25.4546 14C25.4546 7.67388 20.3262 2.5455 14 2.5455C7.67384 2.5455 2.54546 7.67388 2.54546 14C2.54546 20.3262 7.67384 25.4546 14 25.4546ZM7.63636 12.7274V15.2728H20.3636V12.7274H7.63636ZM7.63636 19.091V16.5455H20.3636V19.091H7.63636ZM7.63636 8.90925V11.4547H20.3636V8.90925H7.63636Z" fill="#7B858F"/>
</svg>