<svg width="28" height="28" viewBox="0 0 28 28" fill="none" xmlns="http://www.w3.org/2000/svg">
<rect width="28" height="28" rx="14" fill="#F3F6F9"/>
<path fill-rule="evenodd" clip-rule="evenodd" d="M8.82415 20.546C8.33643 20.2025 7.88437 19.8119 7.47461 19.3806C7.71948 17.31 10.2001 16.4551 14.0001 16.4551C17.8001 16.4551 20.2807 17.31 20.5256 19.3806C20.1158 19.8119 19.6638 20.2025 19.176 20.546H18.9092V19.7278C18.9092 18.7477 17.1548 18.0914 14.0001 18.0914C10.8453 18.0914 9.09101 18.7477 9.09101 19.7278V20.546H8.82415Z" fill="#2D9CDB"/>
<path fill-rule="evenodd" clip-rule="evenodd" d="M5 14C5 18.9706 9.02944 23 14 23C18.9706 23 23 18.9706 23 14C23 9.02944 18.9706 5 14 5C9.02944 5 5 9.02944 5 14ZM21.3631 14.0001C21.3631 18.0669 18.0663 21.3637 13.9995 21.3637C9.93265 21.3637 6.63584 18.0669 6.63584 14.0001C6.63584 9.93324 9.93265 6.63642 13.9995 6.63642C18.0663 6.63642 21.3631 9.93324 21.3631 14.0001ZM10.7271 12.3636C10.7271 10.5274 12.0191 9.09091 13.9999 9.09091C15.9751 9.09091 17.2726 10.6631 17.2726 12.5273C17.2726 15.2106 15.8147 16.4545 13.9999 16.4545C12.1679 16.4545 10.7271 15.1678 10.7271 12.3636ZM14.0005 14.8182C13.0336 14.8182 12.3642 14.2204 12.3642 12.3637C12.3642 11.3948 12.9645 10.7273 14.0005 10.7273C14.9952 10.7273 15.6369 11.505 15.6369 12.5273C15.6369 14.2442 14.9641 14.8182 14.0005 14.8182Z" fill="#2F80ED"/>
</svg>